<?xml version="1.0"?>
<svg xmlns="http://www.w3.org/2000/svg" height="512px" viewBox="0 0 512 512.02225" width="512px"><path d="m26.492188 459.058594h459.035156v-8.828125c0-4.875-3.953125-8.828125-8.828125-8.828125h-441.378907c-4.875 0-8.828124 3.953125-8.828124 8.828125zm0 0" fill="#FFFFFF"/><path d="m26.492188 132.4375h459.035156v17.652344h-459.035156zm0 0" fill="#FFFFFF"/><path d="m97.113281 194.230469v-17.65625c0-4.875-3.949219-8.828125-8.828125-8.828125h-52.964844c-4.875 0-8.828124 3.953125-8.828124 8.828125v17.65625c0 4.875 3.953124 8.828125 8.828124 8.828125h8.828126s-8.296876 33.277344-8.828126 220.6875h52.878907c-.441407-187.410156-8.738281-220.6875-8.738281-220.6875h8.824218c4.878906 0 8.828125-3.953125 8.828125-8.828125zm0 0" fill="#FFFFFF"/><path d="m485.527344 176.574219c0-4.875-3.953125-8.828125-8.828125-8.828125h-52.964844c-4.875 0-8.828125 3.953125-8.828125 8.828125v17.65625c0 4.875 3.953125 8.828125 8.828125 8.828125h8.828125s-8.296875 33.277344-8.828125 220.6875h52.878906c-.441406-187.410156-8.738281-220.6875-8.738281-220.6875h8.824219c4.875 0 8.828125-3.953125 8.828125-8.828125zm0 0" fill="#FFFFFF"/><path d="m353.113281 194.230469v-17.65625c0-4.875-3.949219-8.828125-8.828125-8.828125h-52.964844c-4.875 0-8.828124 3.953125-8.828124 8.828125v17.65625c0 4.875 3.953124 8.828125 8.828124 8.828125h8.828126s-8.296876 33.277344-8.828126 220.6875h52.878907c-.441407-187.410156-8.738281-220.6875-8.738281-220.6875h8.824218c4.878906 0 8.828125-3.953125 8.828125-8.828125zm0 0" fill="#FFFFFF"/><path d="m229.527344 194.230469v-17.65625c0-4.875-3.953125-8.828125-8.828125-8.828125h-52.964844c-4.875 0-8.828125 3.953125-8.828125 8.828125v17.65625c0 4.875 3.953125 8.828125 8.828125 8.828125h8.828125s-8.296875 33.277344-8.828125 220.6875h52.878906c-.441406-187.410156-8.738281-220.6875-8.738281-220.6875h8.824219c4.875 0 8.828125-3.953125 8.828125-8.828125zm0 0" fill="#FFFFFF"/><path d="m8.839844 476.710938h494.34375c4.875 0 8.828125 3.953124 8.828125 8.828124v17.65625c0 4.875-3.953125 8.828126-8.828125 8.828126h-494.34375c-4.875 0-8.8281252-3.953126-8.8281252-8.828126v-17.65625c0-4.875 3.9531252-8.828124 8.8281252-8.828124zm0 0" fill="#FFFFFF"/><path d="m6.632812 114.78125h498.757813c3.136719-.074219 5.808594-2.292969 6.460937-5.363281.652344-3.070313-.890624-6.183594-3.722656-7.523438l-237.992187-99.046875c-9.035157-3.796875-19.214844-3.796875-28.25 0l-237.992188 99.046875c-2.835937 1.339844-4.375 4.453125-3.726562 7.523438.652343 3.070312 3.328125 5.289062 6.464843 5.363281zm139.652344-43.433594 105.753906-44.046875c1.089844-.453125 2.261719-.695312 3.441407-.707031h1.058593c1.183594.011719 2.351563.253906 3.445313.707031l105.753906 44.046875c3.839844 1.636719 6.011719 5.742188 5.199219 9.835938-.808594 4.097656-4.378906 7.066406-8.554688 7.113281h-212.742187c-4.175781-.046875-7.746094-3.015625-8.558594-7.113281-.808593-4.09375 1.359375-8.199219 5.203125-9.835938zm0 0" fill="#FFFFFF"/><path d="m256.011719 44.777344-62.148438 25.867187h124.292969zm0 0" fill="#FFFFFF"/></svg>
